<?xml version="1.0" standalone="no"?>
<!DOCTYPE svg PUBLIC "-//W3C//DTD SVG 20010904//EN"
 "http://www.w3.org/TR/2001/REC-SVG-20010904/DTD/svg10.dtd">
<svg version="1.0" xmlns="http://www.w3.org/2000/svg"
 width="766.000000pt" height="272.000000pt" viewBox="0 0 766.000000 272.000000"
 preserveAspectRatio="xMidYMid meet">

<g transform="translate(0.000000,272.000000) scale(0.100000,-0.100000)"
fill="#000000" stroke="none">
<path d="M1258 2069 c-11 -6 -18 -22 -18 -42 0 -18 -7 -70 -15 -117 -17 -93
-19 -104 -70 -425 -42 -265 -50 -314 -69 -430 -9 -49 -22 -135 -31 -190 -9
-55 -21 -126 -27 -158 -6 -32 -8 -60 -5 -63 3 -3 44 -6 92 -7 69 -2 89 1 95
13 5 9 13 87 19 175 6 88 16 212 21 275 12 128 27 344 40 550 13 224 22 299
35 317 12 16 14 15 20 -12 6 -25 30 -112 98 -350 3 -11 13 -45 22 -75 9 -30
20 -68 25 -85 4 -16 29 -102 55 -190 25 -88 62 -216 82 -285 19 -69 43 -150
53 -180 9 -30 23 -76 31 -101 l13 -47 60 -5 c74 -5 89 5 104 71 5 26 17 70 25
97 17 58 62 218 82 290 8 28 21 75 30 105 9 30 20 69 25 85 4 17 18 66 30 110
12 44 26 94 30 110 5 17 16 55 25 85 9 30 22 78 30 105 7 28 20 75 29 105 9
30 21 76 27 102 5 25 19 54 30 64 18 16 19 16 19 -7 1 -35 17 -257 29 -389 5
-63 17 -207 26 -320 8 -113 20 -250 25 -305 5 -55 12 -144 16 -198 4 -53 10
-99 14 -102 12 -7 189 -9 196 -2 6 6 -2 63 -31 232 -8 44 -21 127 -30 185 -8
58 -20 128 -25 155 -6 28 -14 79 -19 115 -5 36 -18 121 -30 190 -12 69 -28
170 -37 225 -8 55 -22 135 -30 178 -8 42 -14 91 -14 107 0 19 -7 33 -19 40
-28 14 -127 13 -138 -2 -5 -7 -22 -53 -37 -103 -15 -49 -34 -108 -40 -130 -19
-59 -32 -101 -56 -185 -12 -41 -32 -106 -45 -145 -12 -38 -31 -97 -40 -130
-10 -33 -26 -85 -35 -115 -10 -30 -28 -89 -40 -130 -13 -41 -35 -115 -51 -165
-16 -49 -31 -102 -35 -117 -9 -40 -41 -37 -49 4 -4 18 -13 51 -20 73 -12 35
-55 177 -87 285 -6 19 -16 53 -23 75 -7 22 -20 67 -30 100 -10 33 -28 96 -42
140 -13 44 -38 125 -55 180 -16 55 -36 120 -44 145 -8 25 -27 86 -43 135 l-28
90 -64 2 c-35 2 -72 -2 -81 -8z"/>
<path d="M2826 2072 c-3 -5 -1 -220 4 -478 8 -419 11 -476 28 -535 34 -114 72
-179 152 -259 116 -117 224 -160 403 -161 117 -1 170 11 276 64 111 55 184
134 244 261 55 116 64 219 66 730 1 192 3 352 6 354 3 3 0 11 -6 19 -14 16
-164 19 -174 3 -3 -5 -6 -167 -5 -359 1 -530 -22 -698 -115 -846 -68 -108
-200 -176 -313 -162 -204 25 -304 137 -360 402 -11 53 -16 181 -21 520 l-6
450 -87 3 c-47 1 -89 -1 -92 -6z"/>
<path d="M4605 2074 c-160 -25 -267 -114 -309 -256 -26 -89 -18 -157 29 -248
42 -80 184 -173 395 -256 237 -93 365 -181 411 -281 29 -64 26 -172 -5 -222
-52 -81 -134 -115 -281 -115 -107 0 -163 14 -233 58 -59 37 -139 133 -175 209
l-32 67 -95 -2 c-95 -3 -95 -3 -92 -28 9 -61 92 -172 184 -247 39 -32 132 -73
213 -94 100 -26 319 -26 404 0 178 55 271 177 271 354 0 69 -4 89 -30 141 -65
134 -201 233 -450 331 -52 20 -146 62 -208 92 -148 73 -192 122 -192 215 0
120 127 218 288 220 200 3 341 -100 407 -297 l20 -60 80 -3 c103 -3 110 2 90
59 -39 113 -97 191 -195 264 -82 62 -196 94 -345 99 -66 3 -133 2 -150 0z"/>
<path d="M6120 2073 c-231 -14 -468 -199 -554 -433 -46 -124 -51 -153 -51
-280 0 -151 19 -235 79 -351 90 -174 244 -305 416 -353 92 -26 264 -25 345 2
119 39 186 80 276 171 69 70 95 104 132 180 26 51 47 99 47 107 0 8 4 22 10
32 17 32 29 194 19 285 -9 90 -34 194 -50 212 -5 5 -9 15 -9 22 0 21 -60 113
-113 176 -140 164 -328 243 -547 230z m251 -107 c346 -81 427 -599 152 -965
-31 -41 -72 -88 -91 -105 -19 -17 -47 -41 -61 -54 -61 -53 -219 -111 -306
-112 -47 0 -126 21 -173 45 -82 42 -164 152 -197 265 -27 90 -28 288 -1 380
58 204 190 388 341 476 136 79 222 97 336 70z"/>
</g>
</svg>
