<?xml version="1.0" standalone="no"?>
<!DOCTYPE svg PUBLIC "-//W3C//DTD SVG 20010904//EN"
 "http://www.w3.org/TR/2001/REC-SVG-20010904/DTD/svg10.dtd">
<svg version="1.0" xmlns="http://www.w3.org/2000/svg"
 width="1054.000000pt" height="608.000000pt" viewBox="0 0 1054.000000 608.000000"
 preserveAspectRatio="xMidYMid meet">

<g transform="translate(0.000000,608.000000) scale(0.100000,-0.100000)"
fill="#000000" stroke="none">
<path d="M3770 3775 c0 -272 -3 -495 -8 -495 -4 0 -338 110 -742 245 -404 135
-738 245 -742 245 -5 0 -8 -240 -8 -534 l0 -534 53 -18 c28 -9 58 -19 65 -22
9 -3 12 93 12 461 l0 465 747 -249 c412 -137 749 -249 750 -249 2 0 3 225 3
500 l0 499 2040 -681 c1122 -375 2037 -685 2033 -689 -5 -3 -647 -219 -1428
-479 -781 -260 -1423 -476 -1428 -479 -4 -4 39 -22 96 -40 l104 -34 1411 471
1412 470 0 -478 0 -478 53 -18 c28 -9 58 -19 65 -22 10 -3 12 112 10 568 l-3
573 -2235 748 c-1229 411 -2241 748 -2247 748 -10 1 -13 -104 -13 -494z"/>
</g>
</svg>
