<?xml version="1.0" standalone="no"?>
<!DOCTYPE svg PUBLIC "-//W3C//DTD SVG 20010904//EN"
 "http://www.w3.org/TR/2001/REC-SVG-20010904/DTD/svg10.dtd">
<svg version="1.0" xmlns="http://www.w3.org/2000/svg"
 width="844.000000pt" height="844.000000pt" viewBox="0 0 844.000000 844.000000"
 preserveAspectRatio="xMidYMid meet">
<metadata>
Created by potrace 1.14, written by Peter Selinger 2001-2017
</metadata>
<g transform="translate(0.000000,844.000000) scale(0.100000,-0.100000)"
fill="#000000" stroke="none">
<path d="M624 5262 c-31 -3 -32 -6 -43 -65 -11 -64 -16 -93 -26 -162 -3 -22
-10 -65 -15 -95 -5 -30 -12 -71 -15 -90 -6 -36 -13 -76 -20 -120 -8 -46 -46
-284 -51 -320 -3 -19 -7 -46 -10 -60 -2 -14 -11 -68 -19 -120 -9 -52 -18 -106
-20 -120 -2 -14 -7 -41 -10 -60 -3 -19 -8 -46 -10 -60 -2 -14 -18 -113 -35
-220 -17 -107 -33 -202 -35 -210 -2 -8 -6 -37 -10 -63 -3 -26 -10 -71 -15 -99
-6 -28 -8 -53 -6 -55 5 -6 255 -7 260 -2 3 2 7 36 10 74 4 39 8 97 11 130 3
33 7 89 9 125 11 152 18 248 21 287 2 23 7 83 10 134 4 50 8 113 10 138 2 25
6 87 10 136 3 50 8 108 10 130 2 22 7 87 10 145 4 58 9 121 10 140 2 19 7 82
11 140 4 58 8 112 10 120 1 8 3 42 4 75 1 79 7 66 68 -145 65 -226 195 -674
322 -1110 56 -190 103 -355 105 -366 16 -72 47 -154 60 -155 8 0 44 0 80 0 98
0 102 0 102 14 0 6 44 165 97 352 54 187 142 500 198 695 55 195 125 441 155
545 30 105 55 196 56 203 0 6 4 12 9 12 4 0 8 -19 9 -42 1 -24 2 -54 4 -68 1
-14 5 -68 9 -120 4 -52 9 -111 11 -130 2 -19 7 -75 10 -125 3 -49 8 -101 10
-115 2 -14 6 -74 10 -134 4 -60 8 -116 10 -125 1 -9 6 -61 10 -116 4 -55 8
-118 10 -140 2 -22 7 -76 10 -120 3 -44 7 -98 10 -120 2 -22 7 -76 10 -120 3
-44 8 -102 10 -130 3 -27 7 -86 10 -130 3 -43 7 -81 9 -83 5 -5 276 -6 279 -1
2 2 -9 78 -24 169 -16 91 -31 183 -34 205 -2 22 -7 50 -9 61 -2 12 -7 39 -10
60 -11 67 -37 228 -41 254 -18 105 -55 332 -59 365 -4 23 -9 52 -11 65 -3 14
-8 43 -10 65 -3 22 -17 105 -30 185 -13 80 -27 163 -30 185 -3 22 -8 51 -11
65 -3 14 -7 41 -10 60 -2 19 -6 46 -9 60 -3 14 -8 45 -11 70 -3 25 -7 46 -8
48 -6 6 -198 7 -202 1 -2 -4 -32 -97 -65 -206 -112 -365 -130 -426 -261 -848
-71 -231 -131 -427 -133 -435 -2 -8 -15 -50 -28 -92 -14 -42 -29 -92 -33 -110
l-7 -33 -14 40 c-8 22 -50 157 -93 300 -43 143 -97 321 -120 395 -23 74 -43
140 -44 145 -1 6 -16 55 -33 110 -17 55 -73 237 -123 405 -51 168 -96 312
-101 320 -7 14 -92 20 -175 12z"/>
<path d="M2677 5264 c-1 -1 -1 -35 0 -76 1 -40 4 -291 7 -558 5 -430 9 -581
21 -638 46 -236 157 -413 328 -525 97 -64 162 -91 277 -115 296 -63 624 65
784 307 64 96 117 231 131 334 3 20 7 54 10 75 3 20 8 271 11 557 3 286 6 545
7 575 l2 55 -128 3 c-126 3 -127 2 -128 -20 0 -13 -2 -268 -4 -568 -2 -300 -6
-556 -8 -570 -3 -14 -8 -50 -12 -80 -13 -99 -52 -235 -92 -316 -104 -213 -314
-311 -542 -253 -186 48 -296 181 -361 437 -10 42 -22 102 -26 132 -3 30 -8 66
-11 80 -2 14 -6 279 -8 589 -3 310 -7 566 -9 568 -4 4 -245 11 -249 7z"/>
<path d="M5148 5265 c-2 -2 -30 -5 -63 -8 -287 -29 -469 -211 -467 -467 2
-239 154 -380 605 -560 173 -69 344 -161 423 -228 40 -34 92 -111 109 -161 30
-90 21 -206 -20 -271 -59 -93 -183 -145 -357 -149 -112 -2 -178 12 -273 58
-123 60 -217 164 -285 314 l-35 76 -137 1 -138 0 24 -64 c87 -231 311 -401
593 -451 80 -15 299 -22 348 -12 11 3 40 8 65 12 139 22 286 114 352 221 54
87 72 155 72 274 -1 252 -200 446 -636 620 -456 181 -551 257 -535 429 9 104
81 187 209 239 53 21 79 25 163 26 111 0 150 -5 228 -32 165 -58 272 -189 327
-399 l11 -43 130 0 129 0 -6 28 c-14 61 -59 161 -101 224 -116 177 -324 292
-566 313 -80 8 -166 12 -169 10z"/>
<path d="M7048 5255 c-2 -2 -24 -6 -49 -9 -65 -9 -162 -41 -244 -82 -210 -106
-374 -301 -455 -543 -110 -328 -43 -704 171 -961 390 -469 1082 -420 1403 100
111 179 157 355 151 570 -12 427 -289 794 -679 901 -69 18 -285 36 -298 24z
m333 -145 c140 -26 283 -140 351 -280 58 -119 79 -219 77 -368 -5 -396 -232
-771 -561 -927 -401 -191 -769 73 -783 561 -5 177 33 342 117 509 177 352 506
560 799 505z"/>
</g>
</svg>
